<mxfile host="Electron" agent="Mozilla/5.0 (Windows NT 10.0; Win64; x64) AppleWebKit/537.36 (KHTML, like Gecko) draw.io/24.7.17 Chrome/128.0.6613.36 Electron/32.0.1 Safari/537.36" version="24.7.17">
  <diagram id="R2lEEEUBdFMjLlhIrx00" name="Page-1">
    <mxGraphModel dx="2465" dy="955" grid="1" gridSize="10" guides="1" tooltips="1" connect="1" arrows="1" fold="1" page="1" pageScale="1" pageWidth="850" pageHeight="1100" math="0" shadow="0" extFonts="Permanent Marker^https://fonts.googleapis.com/css?family=Permanent+Marker">
      <root>
        <mxCell id="0" />
        <mxCell id="1" parent="0" />
        <mxCell id="Cum-z6h_cHzM4pWFLKQP-2" value="" style="ellipse;whiteSpace=wrap;html=1;" parent="1" vertex="1">
          <mxGeometry x="-490" y="474.17" width="120" height="70" as="geometry" />
        </mxCell>
        <mxCell id="Cum-z6h_cHzM4pWFLKQP-1" value="" style="ellipse;whiteSpace=wrap;html=1;" parent="1" vertex="1">
          <mxGeometry x="735" y="1835" width="120" height="70" as="geometry" />
        </mxCell>
        <mxCell id="WUSuxIz9srzla0MGMRCR-62" value="" style="rhombus;whiteSpace=wrap;html=1;" parent="1" vertex="1">
          <mxGeometry x="190" y="1655" width="92.5" height="90" as="geometry" />
        </mxCell>
        <mxCell id="cPYR2mUjyV-IgGl8xkyW-12" value="" style="ellipse;whiteSpace=wrap;html=1;" parent="1" vertex="1">
          <mxGeometry x="745" y="820" width="120" height="80" as="geometry" />
        </mxCell>
        <mxCell id="XMGHCFaLuTb-ErzqM0Ou-1" value="Customer" style="rounded=0;whiteSpace=wrap;html=1;fillColor=#d5e8d4;strokeColor=#82b366;" parent="1" vertex="1">
          <mxGeometry x="-255" y="520" width="120" height="60" as="geometry" />
        </mxCell>
        <mxCell id="XMGHCFaLuTb-ErzqM0Ou-2" value="&#xa;Feedback&#xa;&#xa;" style="rounded=0;whiteSpace=wrap;html=1;fillColor=#d5e8d4;strokeColor=#82b366;" parent="1" vertex="1">
          <mxGeometry x="-345" y="920" width="120" height="60" as="geometry" />
        </mxCell>
        <mxCell id="XMGHCFaLuTb-ErzqM0Ou-4" value="Inventory" style="rounded=0;whiteSpace=wrap;html=1;fillColor=#d5e8d4;strokeColor=#82b366;" parent="1" vertex="1">
          <mxGeometry x="705" y="1130" width="120" height="60" as="geometry" />
        </mxCell>
        <mxCell id="XMGHCFaLuTb-ErzqM0Ou-7" value="&#xa;Service&#xa;&#xa;" style="rounded=0;whiteSpace=wrap;html=1;fillColor=#d5e8d4;strokeColor=#82b366;" parent="1" vertex="1">
          <mxGeometry x="317.5" y="950" width="120" height="60" as="geometry" />
        </mxCell>
        <mxCell id="XMGHCFaLuTb-ErzqM0Ou-10" value="&#xa;Service_ID&#xa;&#xa;" style="ellipse;whiteSpace=wrap;html=1;fontStyle=4" parent="1" vertex="1">
          <mxGeometry x="197.5" y="849.17" width="110" height="60" as="geometry" />
        </mxCell>
        <mxCell id="XMGHCFaLuTb-ErzqM0Ou-13" value="&#xa;Address&#xa;&#xa;" style="ellipse;whiteSpace=wrap;html=1;" parent="1" vertex="1">
          <mxGeometry x="-480" y="560" width="110" height="60" as="geometry" />
        </mxCell>
        <mxCell id="XMGHCFaLuTb-ErzqM0Ou-14" value="&#xa;Phone&#xa;&#xa;" style="ellipse;whiteSpace=wrap;html=1;" parent="1" vertex="1">
          <mxGeometry x="-485" y="479.17" width="110" height="60" as="geometry" />
        </mxCell>
        <mxCell id="XMGHCFaLuTb-ErzqM0Ou-15" value="&#xa;Email&#xa;&#xa;" style="ellipse;whiteSpace=wrap;html=1;" parent="1" vertex="1">
          <mxGeometry x="-425" y="335" width="110" height="60" as="geometry" />
        </mxCell>
        <mxCell id="XMGHCFaLuTb-ErzqM0Ou-17" value="&#xa;Customer_ID&#xa;&#xa;" style="ellipse;whiteSpace=wrap;html=1;fontStyle=4" parent="1" vertex="1">
          <mxGeometry x="-170" y="380" width="110" height="60" as="geometry" />
        </mxCell>
        <mxCell id="XMGHCFaLuTb-ErzqM0Ou-19" value="" style="endArrow=none;html=1;rounded=0;exitX=0.75;exitY=0;exitDx=0;exitDy=0;" parent="1" source="XMGHCFaLuTb-ErzqM0Ou-1" target="XMGHCFaLuTb-ErzqM0Ou-17" edge="1">
          <mxGeometry width="50" height="50" relative="1" as="geometry">
            <mxPoint x="-215" y="730" as="sourcePoint" />
            <mxPoint x="-165" y="680" as="targetPoint" />
          </mxGeometry>
        </mxCell>
        <mxCell id="XMGHCFaLuTb-ErzqM0Ou-22" value="" style="endArrow=none;html=1;rounded=0;exitX=0.961;exitY=0.263;exitDx=0;exitDy=0;exitPerimeter=0;" parent="1" source="XMGHCFaLuTb-ErzqM0Ou-13" edge="1">
          <mxGeometry width="50" height="50" relative="1" as="geometry">
            <mxPoint x="-305" y="600" as="sourcePoint" />
            <mxPoint x="-255" y="550" as="targetPoint" />
          </mxGeometry>
        </mxCell>
        <mxCell id="XMGHCFaLuTb-ErzqM0Ou-23" value="" style="endArrow=none;html=1;rounded=0;exitX=1;exitY=0.5;exitDx=0;exitDy=0;" parent="1" source="XMGHCFaLuTb-ErzqM0Ou-14" edge="1">
          <mxGeometry width="50" height="50" relative="1" as="geometry">
            <mxPoint x="-305" y="570" as="sourcePoint" />
            <mxPoint x="-255" y="520" as="targetPoint" />
          </mxGeometry>
        </mxCell>
        <mxCell id="XMGHCFaLuTb-ErzqM0Ou-24" value="" style="endArrow=none;html=1;rounded=0;entryX=0.25;entryY=0;entryDx=0;entryDy=0;exitX=0.771;exitY=0.936;exitDx=0;exitDy=0;exitPerimeter=0;" parent="1" source="XMGHCFaLuTb-ErzqM0Ou-15" target="XMGHCFaLuTb-ErzqM0Ou-1" edge="1">
          <mxGeometry width="50" height="50" relative="1" as="geometry">
            <mxPoint x="-325" y="490" as="sourcePoint" />
            <mxPoint x="-275" y="440" as="targetPoint" />
          </mxGeometry>
        </mxCell>
        <mxCell id="XMGHCFaLuTb-ErzqM0Ou-25" value="" style="endArrow=none;html=1;rounded=0;exitX=0.5;exitY=0;exitDx=0;exitDy=0;" parent="1" source="XMGHCFaLuTb-ErzqM0Ou-16" target="XMGHCFaLuTb-ErzqM0Ou-1" edge="1">
          <mxGeometry width="50" height="50" relative="1" as="geometry">
            <mxPoint x="-275" y="490" as="sourcePoint" />
            <mxPoint x="-225" y="440" as="targetPoint" />
          </mxGeometry>
        </mxCell>
        <mxCell id="XMGHCFaLuTb-ErzqM0Ou-27" value="&#xa;Order_ID&#xa;&#xa;" style="ellipse;whiteSpace=wrap;html=1;fontStyle=4" parent="1" vertex="1">
          <mxGeometry x="-270" y="1080" width="110" height="60" as="geometry" />
        </mxCell>
        <mxCell id="XMGHCFaLuTb-ErzqM0Ou-28" value="&#xa;Service_Status&#xa;&#xa;" style="ellipse;whiteSpace=wrap;html=1;" parent="1" vertex="1">
          <mxGeometry x="327.5" y="792.14" width="110" height="60" as="geometry" />
        </mxCell>
        <mxCell id="XMGHCFaLuTb-ErzqM0Ou-30" value="" style="endArrow=none;html=1;rounded=0;" parent="1" source="XMGHCFaLuTb-ErzqM0Ou-10" target="XMGHCFaLuTb-ErzqM0Ou-7" edge="1">
          <mxGeometry width="50" height="50" relative="1" as="geometry">
            <mxPoint x="272.5" y="900" as="sourcePoint" />
            <mxPoint x="322.5" y="850" as="targetPoint" />
          </mxGeometry>
        </mxCell>
        <mxCell id="XMGHCFaLuTb-ErzqM0Ou-32" value="" style="endArrow=none;html=1;rounded=0;entryX=0;entryY=1;entryDx=0;entryDy=0;" parent="1" source="XMGHCFaLuTb-ErzqM0Ou-7" target="XMGHCFaLuTb-ErzqM0Ou-28" edge="1">
          <mxGeometry width="50" height="50" relative="1" as="geometry">
            <mxPoint x="272.5" y="1080" as="sourcePoint" />
            <mxPoint x="322.5" y="1030" as="targetPoint" />
          </mxGeometry>
        </mxCell>
        <mxCell id="XMGHCFaLuTb-ErzqM0Ou-34" value="&#xa;Order&#xa;&#xa;" style="rounded=0;whiteSpace=wrap;html=1;fillColor=#d5e8d4;strokeColor=#82b366;" parent="1" vertex="1">
          <mxGeometry x="-90" y="1020" width="120" height="60" as="geometry" />
        </mxCell>
        <mxCell id="XMGHCFaLuTb-ErzqM0Ou-37" value="&#xa;Invoice_Date&#xa;&#xa;" style="ellipse;whiteSpace=wrap;html=1;" parent="1" vertex="1">
          <mxGeometry x="425" y="1470" width="110" height="60" as="geometry" />
        </mxCell>
        <mxCell id="XMGHCFaLuTb-ErzqM0Ou-39" value="&#xa;Invoice_ID&#xa;&#xa;" style="ellipse;whiteSpace=wrap;html=1;fontStyle=4" parent="1" vertex="1">
          <mxGeometry x="315" y="1545" width="110" height="60" as="geometry" />
        </mxCell>
        <mxCell id="XMGHCFaLuTb-ErzqM0Ou-41" value="&lt;br&gt;Order_Status&lt;div&gt;&lt;br/&gt;&lt;/div&gt;" style="ellipse;whiteSpace=wrap;html=1;" parent="1" vertex="1">
          <mxGeometry x="-190" y="1260" width="110" height="60" as="geometry" />
        </mxCell>
        <mxCell id="XMGHCFaLuTb-ErzqM0Ou-42" value="&#xa;Order_Date&#xa;&#xa;" style="ellipse;whiteSpace=wrap;html=1;" parent="1" vertex="1">
          <mxGeometry x="-270" y="1170" width="110" height="60" as="geometry" />
        </mxCell>
        <mxCell id="XMGHCFaLuTb-ErzqM0Ou-44" value="" style="endArrow=none;html=1;rounded=0;" parent="1" source="XMGHCFaLuTb-ErzqM0Ou-27" target="XMGHCFaLuTb-ErzqM0Ou-34" edge="1">
          <mxGeometry width="50" height="50" relative="1" as="geometry">
            <mxPoint x="-475" y="1215" as="sourcePoint" />
            <mxPoint x="-410" y="1129.4186046511627" as="targetPoint" />
          </mxGeometry>
        </mxCell>
        <mxCell id="XMGHCFaLuTb-ErzqM0Ou-47" value="" style="endArrow=none;html=1;rounded=0;" parent="1" source="XMGHCFaLuTb-ErzqM0Ou-42" target="XMGHCFaLuTb-ErzqM0Ou-34" edge="1">
          <mxGeometry width="50" height="50" relative="1" as="geometry">
            <mxPoint x="-475" y="1465" as="sourcePoint" />
            <mxPoint x="-410" y="1154.591836734694" as="targetPoint" />
          </mxGeometry>
        </mxCell>
        <mxCell id="XMGHCFaLuTb-ErzqM0Ou-48" value="" style="endArrow=none;html=1;rounded=0;" parent="1" source="XMGHCFaLuTb-ErzqM0Ou-41" target="XMGHCFaLuTb-ErzqM0Ou-34" edge="1">
          <mxGeometry width="50" height="50" relative="1" as="geometry">
            <mxPoint x="-405" y="1395" as="sourcePoint" />
            <mxPoint x="-387.9411764705885" y="1165" as="targetPoint" />
          </mxGeometry>
        </mxCell>
        <mxCell id="XMGHCFaLuTb-ErzqM0Ou-50" value="Receipt" style="rounded=0;whiteSpace=wrap;html=1;fillColor=#d5e8d4;strokeColor=#82b366;" parent="1" vertex="1">
          <mxGeometry x="410" y="1680" width="120" height="60" as="geometry" />
        </mxCell>
        <mxCell id="XMGHCFaLuTb-ErzqM0Ou-56" value="" style="endArrow=none;html=1;rounded=0;" parent="1" source="XMGHCFaLuTb-ErzqM0Ou-39" target="XMGHCFaLuTb-ErzqM0Ou-50" edge="1">
          <mxGeometry width="50" height="50" relative="1" as="geometry">
            <mxPoint x="225" y="1530" as="sourcePoint" />
            <mxPoint x="275" y="1480" as="targetPoint" />
          </mxGeometry>
        </mxCell>
        <mxCell id="XMGHCFaLuTb-ErzqM0Ou-58" value="" style="endArrow=none;html=1;rounded=0;" parent="1" source="XMGHCFaLuTb-ErzqM0Ou-37" target="XMGHCFaLuTb-ErzqM0Ou-50" edge="1">
          <mxGeometry width="50" height="50" relative="1" as="geometry">
            <mxPoint x="305" y="1540" as="sourcePoint" />
            <mxPoint x="355" y="1490" as="targetPoint" />
          </mxGeometry>
        </mxCell>
        <mxCell id="XMGHCFaLuTb-ErzqM0Ou-61" value="&#xa;Inventory_ID&#xa;&#xa;" style="ellipse;whiteSpace=wrap;html=1;fontStyle=4" parent="1" vertex="1">
          <mxGeometry x="665" y="1270" width="110" height="60" as="geometry" />
        </mxCell>
        <mxCell id="XMGHCFaLuTb-ErzqM0Ou-62" value="&#xa;Last_Updated&#xa;&#xa;" style="ellipse;whiteSpace=wrap;html=1;" parent="1" vertex="1">
          <mxGeometry x="865" y="1020" width="110" height="60" as="geometry" />
        </mxCell>
        <mxCell id="XMGHCFaLuTb-ErzqM0Ou-63" value="&#xa;Stock_Level&#xa;&#xa;" style="ellipse;whiteSpace=wrap;html=1;" parent="1" vertex="1">
          <mxGeometry x="905" y="1180" width="110" height="60" as="geometry" />
        </mxCell>
        <mxCell id="XMGHCFaLuTb-ErzqM0Ou-64" value="&#xa;Product_Name&#xa;&#xa;" style="ellipse;whiteSpace=wrap;html=1;" parent="1" vertex="1">
          <mxGeometry x="805" y="1270" width="110" height="60" as="geometry" />
        </mxCell>
        <mxCell id="XMGHCFaLuTb-ErzqM0Ou-65" value="Unit price" style="ellipse;whiteSpace=wrap;html=1;" parent="1" vertex="1">
          <mxGeometry x="955" y="1090" width="110" height="60" as="geometry" />
        </mxCell>
        <mxCell id="XMGHCFaLuTb-ErzqM0Ou-66" value="" style="endArrow=none;html=1;rounded=0;exitX=0.5;exitY=0;exitDx=0;exitDy=0;" parent="1" source="XMGHCFaLuTb-ErzqM0Ou-61" edge="1">
          <mxGeometry width="50" height="50" relative="1" as="geometry">
            <mxPoint x="695" y="1240" as="sourcePoint" />
            <mxPoint x="745" y="1190" as="targetPoint" />
          </mxGeometry>
        </mxCell>
        <mxCell id="XMGHCFaLuTb-ErzqM0Ou-67" value="" style="endArrow=none;html=1;rounded=0;exitX=0.356;exitY=-0.04;exitDx=0;exitDy=0;exitPerimeter=0;" parent="1" source="XMGHCFaLuTb-ErzqM0Ou-64" edge="1">
          <mxGeometry width="50" height="50" relative="1" as="geometry">
            <mxPoint x="755" y="1240" as="sourcePoint" />
            <mxPoint x="805" y="1190" as="targetPoint" />
          </mxGeometry>
        </mxCell>
        <mxCell id="XMGHCFaLuTb-ErzqM0Ou-68" value="" style="endArrow=none;html=1;rounded=0;" parent="1" target="XMGHCFaLuTb-ErzqM0Ou-63" edge="1">
          <mxGeometry width="50" height="50" relative="1" as="geometry">
            <mxPoint x="825" y="1180" as="sourcePoint" />
            <mxPoint x="875" y="1130" as="targetPoint" />
          </mxGeometry>
        </mxCell>
        <mxCell id="XMGHCFaLuTb-ErzqM0Ou-69" value="" style="endArrow=none;html=1;rounded=0;entryX=0;entryY=0.5;entryDx=0;entryDy=0;" parent="1" target="XMGHCFaLuTb-ErzqM0Ou-65" edge="1">
          <mxGeometry width="50" height="50" relative="1" as="geometry">
            <mxPoint x="825" y="1160" as="sourcePoint" />
            <mxPoint x="875" y="1110" as="targetPoint" />
          </mxGeometry>
        </mxCell>
        <mxCell id="XMGHCFaLuTb-ErzqM0Ou-70" value="" style="endArrow=none;html=1;rounded=0;entryX=0;entryY=1;entryDx=0;entryDy=0;" parent="1" target="XMGHCFaLuTb-ErzqM0Ou-62" edge="1">
          <mxGeometry width="50" height="50" relative="1" as="geometry">
            <mxPoint x="825" y="1130" as="sourcePoint" />
            <mxPoint x="875" y="1080" as="targetPoint" />
          </mxGeometry>
        </mxCell>
        <mxCell id="XMGHCFaLuTb-ErzqM0Ou-83" value="&#xa;&lt;code&gt;Feedback_ID&lt;/code&gt; &#xa;&#xa;" style="ellipse;whiteSpace=wrap;html=1;" parent="1" vertex="1">
          <mxGeometry x="-630" y="1025.11" width="110" height="60" as="geometry" />
        </mxCell>
        <mxCell id="XMGHCFaLuTb-ErzqM0Ou-84" value="&#xa;Comments&#xa;&#xa;" style="ellipse;whiteSpace=wrap;html=1;" parent="1" vertex="1">
          <mxGeometry x="-545" y="1095.11" width="110" height="60" as="geometry" />
        </mxCell>
        <mxCell id="XMGHCFaLuTb-ErzqM0Ou-86" value="&#xa;Rating&#xa;&#xa;" style="ellipse;whiteSpace=wrap;html=1;" parent="1" vertex="1">
          <mxGeometry x="-405" y="1095.11" width="110" height="60" as="geometry" />
        </mxCell>
        <mxCell id="XMGHCFaLuTb-ErzqM0Ou-87" value="Worker" style="rounded=0;whiteSpace=wrap;html=1;fillColor=#d5e8d4;strokeColor=#82b366;" parent="1" vertex="1">
          <mxGeometry x="975" y="1630" width="120" height="60" as="geometry" />
        </mxCell>
        <mxCell id="XMGHCFaLuTb-ErzqM0Ou-90" value="&#xa;Address&#xa;&#xa;" style="ellipse;whiteSpace=wrap;html=1;" parent="1" vertex="1">
          <mxGeometry x="1205" y="1600" width="110" height="60" as="geometry" />
        </mxCell>
        <mxCell id="XMGHCFaLuTb-ErzqM0Ou-91" value="&#xa;Phone&#xa;&#xa;" style="ellipse;whiteSpace=wrap;html=1;" parent="1" vertex="1">
          <mxGeometry x="740" y="1840" width="110" height="60" as="geometry" />
        </mxCell>
        <mxCell id="XMGHCFaLuTb-ErzqM0Ou-92" value="&#xa;Email&#xa;&#xa;" style="ellipse;whiteSpace=wrap;html=1;" parent="1" vertex="1">
          <mxGeometry x="1120" y="1845" width="110" height="60" as="geometry" />
        </mxCell>
        <mxCell id="XMGHCFaLuTb-ErzqM0Ou-93" value="&#xa;Name&#xa;&#xa;" style="ellipse;whiteSpace=wrap;html=1;" parent="1" vertex="1">
          <mxGeometry x="915" y="1410" width="110" height="60" as="geometry" />
        </mxCell>
        <mxCell id="XMGHCFaLuTb-ErzqM0Ou-98" value="" style="endArrow=none;html=1;rounded=0;" parent="1" source="XMGHCFaLuTb-ErzqM0Ou-90" target="XMGHCFaLuTb-ErzqM0Ou-87" edge="1">
          <mxGeometry width="50" height="50" relative="1" as="geometry">
            <mxPoint x="1015" y="1840" as="sourcePoint" />
            <mxPoint x="1065" y="1790" as="targetPoint" />
          </mxGeometry>
        </mxCell>
        <mxCell id="XMGHCFaLuTb-ErzqM0Ou-99" value="" style="endArrow=none;html=1;rounded=0;exitX=1;exitY=0.5;exitDx=0;exitDy=0;" parent="1" source="XMGHCFaLuTb-ErzqM0Ou-91" target="XMGHCFaLuTb-ErzqM0Ou-87" edge="1">
          <mxGeometry width="50" height="50" relative="1" as="geometry">
            <mxPoint x="1015" y="1810" as="sourcePoint" />
            <mxPoint x="1065" y="1760" as="targetPoint" />
          </mxGeometry>
        </mxCell>
        <mxCell id="XMGHCFaLuTb-ErzqM0Ou-100" value="" style="endArrow=none;html=1;rounded=0;exitX=0.5;exitY=0;exitDx=0;exitDy=0;" parent="1" source="XMGHCFaLuTb-ErzqM0Ou-92" target="XMGHCFaLuTb-ErzqM0Ou-87" edge="1">
          <mxGeometry width="50" height="50" relative="1" as="geometry">
            <mxPoint x="1170" y="1920" as="sourcePoint" />
            <mxPoint x="1045" y="1680" as="targetPoint" />
          </mxGeometry>
        </mxCell>
        <mxCell id="XMGHCFaLuTb-ErzqM0Ou-101" value="" style="endArrow=none;html=1;rounded=0;" parent="1" source="WUSuxIz9srzla0MGMRCR-53" target="XMGHCFaLuTb-ErzqM0Ou-93" edge="1">
          <mxGeometry width="50" height="50" relative="1" as="geometry">
            <mxPoint x="1045" y="1730" as="sourcePoint" />
            <mxPoint x="1095" y="1680" as="targetPoint" />
          </mxGeometry>
        </mxCell>
        <mxCell id="XMGHCFaLuTb-ErzqM0Ou-105" value="" style="endArrow=none;html=1;rounded=0;" parent="1" source="XMGHCFaLuTb-ErzqM0Ou-83" target="XMGHCFaLuTb-ErzqM0Ou-2" edge="1">
          <mxGeometry width="50" height="50" relative="1" as="geometry">
            <mxPoint x="-652.5" y="1055.11" as="sourcePoint" />
            <mxPoint x="-602.5" y="1005.11" as="targetPoint" />
          </mxGeometry>
        </mxCell>
        <mxCell id="XMGHCFaLuTb-ErzqM0Ou-108" value="" style="endArrow=none;html=1;rounded=0;" parent="1" source="XMGHCFaLuTb-ErzqM0Ou-2" target="XMGHCFaLuTb-ErzqM0Ou-86" edge="1">
          <mxGeometry width="50" height="50" relative="1" as="geometry">
            <mxPoint x="-462.5" y="1125.11" as="sourcePoint" />
            <mxPoint x="-412.5" y="1075.11" as="targetPoint" />
          </mxGeometry>
        </mxCell>
        <mxCell id="XMGHCFaLuTb-ErzqM0Ou-109" value="" style="endArrow=none;html=1;rounded=0;" parent="1" source="XMGHCFaLuTb-ErzqM0Ou-2" target="XMGHCFaLuTb-ErzqM0Ou-84" edge="1">
          <mxGeometry width="50" height="50" relative="1" as="geometry">
            <mxPoint x="-432.5" y="1205.11" as="sourcePoint" />
            <mxPoint x="-382.5" y="1155.11" as="targetPoint" />
          </mxGeometry>
        </mxCell>
        <mxCell id="mCTyANqZK8J9GMuDv6o_-1" value="make" style="rhombus;whiteSpace=wrap;html=1;fillColor=#dae8fc;strokeColor=#6c8ebf;" parent="1" vertex="1">
          <mxGeometry x="-70" y="709.17" width="150" height="80" as="geometry" />
        </mxCell>
        <mxCell id="mCTyANqZK8J9GMuDv6o_-2" value="" style="endArrow=none;html=1;rounded=0;entryX=1;entryY=1;entryDx=0;entryDy=0;exitX=0.5;exitY=0;exitDx=0;exitDy=0;" parent="1" source="mCTyANqZK8J9GMuDv6o_-1" target="XMGHCFaLuTb-ErzqM0Ou-1" edge="1">
          <mxGeometry width="50" height="50" relative="1" as="geometry">
            <mxPoint x="-180" y="630" as="sourcePoint" />
            <mxPoint x="-130" y="580" as="targetPoint" />
          </mxGeometry>
        </mxCell>
        <mxCell id="mCTyANqZK8J9GMuDv6o_-5" value="1" style="edgeLabel;html=1;align=center;verticalAlign=middle;resizable=0;points=[];" parent="mCTyANqZK8J9GMuDv6o_-2" vertex="1" connectable="0">
          <mxGeometry x="0.8028" relative="1" as="geometry">
            <mxPoint y="-1" as="offset" />
          </mxGeometry>
        </mxCell>
        <mxCell id="mCTyANqZK8J9GMuDv6o_-4" value="" style="endArrow=none;html=1;rounded=0;entryX=0.5;entryY=1;entryDx=0;entryDy=0;" parent="1" source="XMGHCFaLuTb-ErzqM0Ou-34" target="mCTyANqZK8J9GMuDv6o_-1" edge="1">
          <mxGeometry width="50" height="50" relative="1" as="geometry">
            <mxPoint x="-30" y="1320" as="sourcePoint" />
            <mxPoint x="20" y="1270" as="targetPoint" />
          </mxGeometry>
        </mxCell>
        <mxCell id="mCTyANqZK8J9GMuDv6o_-6" value="M" style="edgeLabel;html=1;align=center;verticalAlign=middle;resizable=0;points=[];" parent="mCTyANqZK8J9GMuDv6o_-4" vertex="1" connectable="0">
          <mxGeometry x="-0.774" y="-1" relative="1" as="geometry">
            <mxPoint as="offset" />
          </mxGeometry>
        </mxCell>
        <mxCell id="mCTyANqZK8J9GMuDv6o_-17" value="has" style="rhombus;whiteSpace=wrap;html=1;fillColor=#dae8fc;strokeColor=#6c8ebf;" parent="1" vertex="1">
          <mxGeometry x="110" y="1090" width="80" height="80" as="geometry" />
        </mxCell>
        <mxCell id="mCTyANqZK8J9GMuDv6o_-18" value="" style="endArrow=none;html=1;rounded=0;exitX=1;exitY=0.5;exitDx=0;exitDy=0;" parent="1" source="mCTyANqZK8J9GMuDv6o_-17" target="XMGHCFaLuTb-ErzqM0Ou-7" edge="1">
          <mxGeometry width="50" height="50" relative="1" as="geometry">
            <mxPoint x="447.5" y="1130" as="sourcePoint" />
            <mxPoint x="437.5" y="1020" as="targetPoint" />
          </mxGeometry>
        </mxCell>
        <mxCell id="mCTyANqZK8J9GMuDv6o_-21" value="1" style="edgeLabel;html=1;align=center;verticalAlign=middle;resizable=0;points=[];" parent="mCTyANqZK8J9GMuDv6o_-18" vertex="1" connectable="0">
          <mxGeometry x="0.5016" y="-3" relative="1" as="geometry">
            <mxPoint x="1" y="1" as="offset" />
          </mxGeometry>
        </mxCell>
        <mxCell id="mCTyANqZK8J9GMuDv6o_-19" value="" style="endArrow=none;html=1;rounded=0;entryX=0;entryY=0.5;entryDx=0;entryDy=0;" parent="1" source="XMGHCFaLuTb-ErzqM0Ou-34" target="mCTyANqZK8J9GMuDv6o_-17" edge="1">
          <mxGeometry width="50" height="50" relative="1" as="geometry">
            <mxPoint x="-150" y="1280" as="sourcePoint" />
            <mxPoint x="-100" y="1230" as="targetPoint" />
          </mxGeometry>
        </mxCell>
        <mxCell id="mCTyANqZK8J9GMuDv6o_-20" value="1" style="edgeLabel;html=1;align=center;verticalAlign=middle;resizable=0;points=[];" parent="mCTyANqZK8J9GMuDv6o_-19" vertex="1" connectable="0">
          <mxGeometry x="-0.5182" y="2" relative="1" as="geometry">
            <mxPoint as="offset" />
          </mxGeometry>
        </mxCell>
        <mxCell id="mCTyANqZK8J9GMuDv6o_-22" value="has" style="rhombus;whiteSpace=wrap;html=1;fillColor=#dae8fc;strokeColor=#6c8ebf;" parent="1" vertex="1">
          <mxGeometry x="110" y="1350" width="80" height="80" as="geometry" />
        </mxCell>
        <mxCell id="mCTyANqZK8J9GMuDv6o_-23" value="" style="endArrow=none;html=1;rounded=0;entryX=0.5;entryY=0;entryDx=0;entryDy=0;" parent="1" source="XMGHCFaLuTb-ErzqM0Ou-34" target="mCTyANqZK8J9GMuDv6o_-22" edge="1">
          <mxGeometry width="50" height="50" relative="1" as="geometry">
            <mxPoint x="30" y="1420" as="sourcePoint" />
            <mxPoint x="80" y="1370" as="targetPoint" />
          </mxGeometry>
        </mxCell>
        <mxCell id="mCTyANqZK8J9GMuDv6o_-25" value="1" style="edgeLabel;html=1;align=center;verticalAlign=middle;resizable=0;points=[];" parent="mCTyANqZK8J9GMuDv6o_-23" vertex="1" connectable="0">
          <mxGeometry x="-0.4813" y="-5" relative="1" as="geometry">
            <mxPoint x="1" as="offset" />
          </mxGeometry>
        </mxCell>
        <mxCell id="mCTyANqZK8J9GMuDv6o_-27" value="do" style="rhombus;whiteSpace=wrap;html=1;fillColor=#dae8fc;strokeColor=#6c8ebf;" parent="1" vertex="1">
          <mxGeometry x="535" y="1250" width="80" height="80" as="geometry" />
        </mxCell>
        <mxCell id="mCTyANqZK8J9GMuDv6o_-29" value="" style="endArrow=none;html=1;rounded=0;exitX=0.5;exitY=0;exitDx=0;exitDy=0;" parent="1" source="mCTyANqZK8J9GMuDv6o_-27" target="XMGHCFaLuTb-ErzqM0Ou-7" edge="1">
          <mxGeometry width="50" height="50" relative="1" as="geometry">
            <mxPoint x="700" y="1440" as="sourcePoint" />
            <mxPoint x="510" y="1250" as="targetPoint" />
          </mxGeometry>
        </mxCell>
        <mxCell id="mCTyANqZK8J9GMuDv6o_-35" value="M" style="edgeLabel;html=1;align=center;verticalAlign=middle;resizable=0;points=[];" parent="mCTyANqZK8J9GMuDv6o_-29" vertex="1" connectable="0">
          <mxGeometry x="0.755" y="-3" relative="1" as="geometry">
            <mxPoint x="-1" as="offset" />
          </mxGeometry>
        </mxCell>
        <mxCell id="mCTyANqZK8J9GMuDv6o_-30" value="use" style="rhombus;whiteSpace=wrap;html=1;fillColor=#dae8fc;strokeColor=#6c8ebf;" parent="1" vertex="1">
          <mxGeometry x="550" y="1030" width="80" height="80" as="geometry" />
        </mxCell>
        <mxCell id="mCTyANqZK8J9GMuDv6o_-31" value="" style="endArrow=none;html=1;rounded=0;entryX=1;entryY=1;entryDx=0;entryDy=0;exitX=0;exitY=0.5;exitDx=0;exitDy=0;" parent="1" source="mCTyANqZK8J9GMuDv6o_-30" target="XMGHCFaLuTb-ErzqM0Ou-7" edge="1">
          <mxGeometry width="50" height="50" relative="1" as="geometry">
            <mxPoint x="380" y="1160" as="sourcePoint" />
            <mxPoint x="430" y="1110" as="targetPoint" />
          </mxGeometry>
        </mxCell>
        <mxCell id="mCTyANqZK8J9GMuDv6o_-33" value="M" style="edgeLabel;html=1;align=center;verticalAlign=middle;resizable=0;points=[];" parent="mCTyANqZK8J9GMuDv6o_-31" vertex="1" connectable="0">
          <mxGeometry x="0.5269" y="-2" relative="1" as="geometry">
            <mxPoint as="offset" />
          </mxGeometry>
        </mxCell>
        <mxCell id="mCTyANqZK8J9GMuDv6o_-32" value="" style="endArrow=none;html=1;rounded=0;exitX=1;exitY=0.5;exitDx=0;exitDy=0;entryX=0;entryY=0;entryDx=0;entryDy=0;" parent="1" source="mCTyANqZK8J9GMuDv6o_-30" target="XMGHCFaLuTb-ErzqM0Ou-4" edge="1">
          <mxGeometry width="50" height="50" relative="1" as="geometry">
            <mxPoint x="670" y="1130" as="sourcePoint" />
            <mxPoint x="720" y="1080" as="targetPoint" />
          </mxGeometry>
        </mxCell>
        <mxCell id="mCTyANqZK8J9GMuDv6o_-34" value="M" style="edgeLabel;html=1;align=center;verticalAlign=middle;resizable=0;points=[];" parent="mCTyANqZK8J9GMuDv6o_-32" vertex="1" connectable="0">
          <mxGeometry x="0.1841" y="4" relative="1" as="geometry">
            <mxPoint as="offset" />
          </mxGeometry>
        </mxCell>
        <mxCell id="XMGHCFaLuTb-ErzqM0Ou-16" value="&#xa;Name&#xa;&#xa;" style="ellipse;whiteSpace=wrap;html=1;" parent="1" vertex="1">
          <mxGeometry x="-295" y="360" width="110" height="60" as="geometry" />
        </mxCell>
        <mxCell id="QH4C9bZdyQ2NckHa1oD1-29" value="Title" style="ellipse;whiteSpace=wrap;html=1;" parent="1" vertex="1">
          <mxGeometry x="-170" y="270" width="90" height="50" as="geometry" />
        </mxCell>
        <mxCell id="QH4C9bZdyQ2NckHa1oD1-30" value="Last name" style="ellipse;whiteSpace=wrap;html=1;" parent="1" vertex="1">
          <mxGeometry x="-365" y="260" width="95" height="50" as="geometry" />
        </mxCell>
        <mxCell id="QH4C9bZdyQ2NckHa1oD1-31" value="First name" style="ellipse;whiteSpace=wrap;html=1;" parent="1" vertex="1">
          <mxGeometry x="-270" y="220" width="100" height="50" as="geometry" />
        </mxCell>
        <mxCell id="QH4C9bZdyQ2NckHa1oD1-32" value="" style="endArrow=none;html=1;rounded=0;" parent="1" source="XMGHCFaLuTb-ErzqM0Ou-16" target="QH4C9bZdyQ2NckHa1oD1-29" edge="1">
          <mxGeometry width="50" height="50" relative="1" as="geometry">
            <mxPoint x="20" y="490" as="sourcePoint" />
            <mxPoint x="70" y="440" as="targetPoint" />
          </mxGeometry>
        </mxCell>
        <mxCell id="QH4C9bZdyQ2NckHa1oD1-34" value="" style="endArrow=none;html=1;rounded=0;" parent="1" source="XMGHCFaLuTb-ErzqM0Ou-16" target="QH4C9bZdyQ2NckHa1oD1-31" edge="1">
          <mxGeometry width="50" height="50" relative="1" as="geometry">
            <mxPoint x="20" y="490" as="sourcePoint" />
            <mxPoint x="70" y="440" as="targetPoint" />
          </mxGeometry>
        </mxCell>
        <mxCell id="QH4C9bZdyQ2NckHa1oD1-35" value="" style="endArrow=none;html=1;rounded=0;" parent="1" source="XMGHCFaLuTb-ErzqM0Ou-16" target="QH4C9bZdyQ2NckHa1oD1-30" edge="1">
          <mxGeometry width="50" height="50" relative="1" as="geometry">
            <mxPoint x="-231" y="370" as="sourcePoint" />
            <mxPoint x="-234" y="320" as="targetPoint" />
          </mxGeometry>
        </mxCell>
        <mxCell id="QH4C9bZdyQ2NckHa1oD1-48" value="Payment" style="rounded=0;whiteSpace=wrap;html=1;fillColor=#d5e8d4;strokeColor=#82b366;" parent="1" vertex="1">
          <mxGeometry x="-90" y="1500" width="120" height="60" as="geometry" />
        </mxCell>
        <mxCell id="QH4C9bZdyQ2NckHa1oD1-49" value="Payment ID&lt;span style=&quot;color: rgba(0, 0, 0, 0); font-family: monospace; font-size: 0px; text-align: start; text-wrap: nowrap;&quot;&gt;%3CmxGraphModel%3E%3Croot%3E%3CmxCell%20id%3D%220%22%2F%3E%3CmxCell%20id%3D%221%22%20parent%3D%220%22%2F%3E%3CmxCell%20id%3D%222%22%20value%3D%22%22%20style%3D%22endArrow%3Dnone%3Bhtml%3D1%3Brounded%3D0%3BexitX%3D1%3BexitY%3D0.5%3BexitDx%3D0%3BexitDy%3D0%3B%22%20edge%3D%221%22%20parent%3D%221%22%3E%3CmxGeometry%20width%3D%2250%22%20height%3D%2250%22%20relative%3D%221%22%20as%3D%22geometry%22%3E%3CmxPoint%20x%3D%2280%22%20y%3D%22889%22%20as%3D%22sourcePoint%22%2F%3E%3CmxPoint%20x%3D%22283%22%20y%3D%22539%22%20as%3D%22targetPoint%22%2F%3E%3C%2FmxGeometry%3E%3C%2FmxCell%3E%3C%2Froot%3E%3C%2FmxGraphModel%3E&lt;/span&gt;" style="ellipse;whiteSpace=wrap;html=1;fontStyle=4" parent="1" vertex="1">
          <mxGeometry x="-350" y="1550" width="120" height="80" as="geometry" />
        </mxCell>
        <mxCell id="QH4C9bZdyQ2NckHa1oD1-50" value="Amount" style="ellipse;whiteSpace=wrap;html=1;" parent="1" vertex="1">
          <mxGeometry x="-300" y="1665" width="120" height="80" as="geometry" />
        </mxCell>
        <mxCell id="QH4C9bZdyQ2NckHa1oD1-51" value="Payment date" style="ellipse;whiteSpace=wrap;html=1;" parent="1" vertex="1">
          <mxGeometry x="-60" y="1680" width="120" height="80" as="geometry" />
        </mxCell>
        <mxCell id="QH4C9bZdyQ2NckHa1oD1-53" value="" style="endArrow=none;html=1;rounded=0;" parent="1" source="QH4C9bZdyQ2NckHa1oD1-49" target="QH4C9bZdyQ2NckHa1oD1-48" edge="1">
          <mxGeometry width="50" height="50" relative="1" as="geometry">
            <mxPoint x="100" y="1660" as="sourcePoint" />
            <mxPoint x="150" y="1610" as="targetPoint" />
          </mxGeometry>
        </mxCell>
        <mxCell id="QH4C9bZdyQ2NckHa1oD1-54" value="" style="endArrow=none;html=1;rounded=0;" parent="1" source="QH4C9bZdyQ2NckHa1oD1-50" target="QH4C9bZdyQ2NckHa1oD1-48" edge="1">
          <mxGeometry width="50" height="50" relative="1" as="geometry">
            <mxPoint x="-358" y="1730" as="sourcePoint" />
            <mxPoint x="-210" y="1673" as="targetPoint" />
          </mxGeometry>
        </mxCell>
        <mxCell id="QH4C9bZdyQ2NckHa1oD1-55" value="" style="endArrow=none;html=1;rounded=0;" parent="1" source="QH4C9bZdyQ2NckHa1oD1-51" target="QH4C9bZdyQ2NckHa1oD1-48" edge="1">
          <mxGeometry width="50" height="50" relative="1" as="geometry">
            <mxPoint x="-348" y="1740" as="sourcePoint" />
            <mxPoint x="-200" y="1683" as="targetPoint" />
          </mxGeometry>
        </mxCell>
        <mxCell id="QH4C9bZdyQ2NckHa1oD1-56" value="" style="endArrow=none;html=1;rounded=0;entryX=0.5;entryY=1;entryDx=0;entryDy=0;" parent="1" source="QH4C9bZdyQ2NckHa1oD1-48" target="mCTyANqZK8J9GMuDv6o_-22" edge="1">
          <mxGeometry width="50" height="50" relative="1" as="geometry">
            <mxPoint x="110" y="1580" as="sourcePoint" />
            <mxPoint x="160" y="1530" as="targetPoint" />
          </mxGeometry>
        </mxCell>
        <mxCell id="QH4C9bZdyQ2NckHa1oD1-68" value="1" style="edgeLabel;html=1;align=center;verticalAlign=middle;resizable=0;points=[];" parent="QH4C9bZdyQ2NckHa1oD1-56" vertex="1" connectable="0">
          <mxGeometry x="-0.6377" y="-2" relative="1" as="geometry">
            <mxPoint as="offset" />
          </mxGeometry>
        </mxCell>
        <mxCell id="KWmNkmGv4BMrLDbc9gnQ-4" style="edgeStyle=orthogonalEdgeStyle;rounded=0;orthogonalLoop=1;jettySize=auto;html=1;endArrow=none;endFill=0;" parent="1" source="QH4C9bZdyQ2NckHa1oD1-57" target="XMGHCFaLuTb-ErzqM0Ou-2" edge="1">
          <mxGeometry relative="1" as="geometry" />
        </mxCell>
        <mxCell id="QH4C9bZdyQ2NckHa1oD1-57" value="make" style="rhombus;whiteSpace=wrap;html=1;fillColor=#dae8fc;strokeColor=#6c8ebf;" parent="1" vertex="1">
          <mxGeometry x="-360" y="770" width="150" height="80" as="geometry" />
        </mxCell>
        <mxCell id="QH4C9bZdyQ2NckHa1oD1-58" value="" style="endArrow=none;html=1;rounded=0;exitX=0.5;exitY=0;exitDx=0;exitDy=0;" parent="1" source="QH4C9bZdyQ2NckHa1oD1-57" target="XMGHCFaLuTb-ErzqM0Ou-1" edge="1">
          <mxGeometry width="50" height="50" relative="1" as="geometry">
            <mxPoint x="60" y="1060" as="sourcePoint" />
            <mxPoint x="110" y="1010" as="targetPoint" />
          </mxGeometry>
        </mxCell>
        <mxCell id="QH4C9bZdyQ2NckHa1oD1-66" value="1" style="edgeLabel;html=1;align=center;verticalAlign=middle;resizable=0;points=[];" parent="QH4C9bZdyQ2NckHa1oD1-58" vertex="1" connectable="0">
          <mxGeometry x="0.8702" y="-1" relative="1" as="geometry">
            <mxPoint as="offset" />
          </mxGeometry>
        </mxCell>
        <mxCell id="QH4C9bZdyQ2NckHa1oD1-63" value="generates" style="rhombus;whiteSpace=wrap;html=1;fillColor=#dae8fc;strokeColor=#6c8ebf;" parent="1" vertex="1">
          <mxGeometry x="197.5" y="1660" width="80" height="80" as="geometry" />
        </mxCell>
        <mxCell id="QH4C9bZdyQ2NckHa1oD1-64" value="" style="endArrow=none;html=1;rounded=0;entryX=0;entryY=0.5;entryDx=0;entryDy=0;" parent="1" source="QH4C9bZdyQ2NckHa1oD1-48" target="QH4C9bZdyQ2NckHa1oD1-63" edge="1">
          <mxGeometry width="50" height="50" relative="1" as="geometry">
            <mxPoint x="200" y="1460" as="sourcePoint" />
            <mxPoint x="250" y="1410" as="targetPoint" />
          </mxGeometry>
        </mxCell>
        <mxCell id="WUSuxIz9srzla0MGMRCR-23" value="1" style="edgeLabel;html=1;align=center;verticalAlign=middle;resizable=0;points=[];" parent="QH4C9bZdyQ2NckHa1oD1-64" vertex="1" connectable="0">
          <mxGeometry x="-0.7021" y="-2" relative="1" as="geometry">
            <mxPoint as="offset" />
          </mxGeometry>
        </mxCell>
        <mxCell id="QH4C9bZdyQ2NckHa1oD1-65" value="" style="endArrow=none;html=1;rounded=0;exitX=1;exitY=0.5;exitDx=0;exitDy=0;shape=link;" parent="1" source="QH4C9bZdyQ2NckHa1oD1-63" target="XMGHCFaLuTb-ErzqM0Ou-50" edge="1">
          <mxGeometry width="50" height="50" relative="1" as="geometry">
            <mxPoint x="200" y="1460" as="sourcePoint" />
            <mxPoint x="250" y="1410" as="targetPoint" />
          </mxGeometry>
        </mxCell>
        <mxCell id="QH4C9bZdyQ2NckHa1oD1-69" value="1" style="edgeLabel;html=1;align=center;verticalAlign=middle;resizable=0;points=[];" parent="QH4C9bZdyQ2NckHa1oD1-65" vertex="1" connectable="0">
          <mxGeometry x="0.7244" y="-3" relative="1" as="geometry">
            <mxPoint as="offset" />
          </mxGeometry>
        </mxCell>
        <mxCell id="cPYR2mUjyV-IgGl8xkyW-5" value="Image Url" style="ellipse;whiteSpace=wrap;html=1;" parent="1" vertex="1">
          <mxGeometry x="755" y="829.17" width="100" height="60" as="geometry" />
        </mxCell>
        <mxCell id="cPYR2mUjyV-IgGl8xkyW-9" value="" style="endArrow=none;html=1;rounded=0;entryX=0.242;entryY=0.142;entryDx=0;entryDy=0;entryPerimeter=0;" parent="1" target="cPYR2mUjyV-IgGl8xkyW-12" edge="1">
          <mxGeometry width="50" height="50" relative="1" as="geometry">
            <mxPoint x="794.4220539830144" y="758.5434657298918" as="sourcePoint" />
            <mxPoint x="530" y="960" as="targetPoint" />
          </mxGeometry>
        </mxCell>
        <mxCell id="WUSuxIz9srzla0MGMRCR-1" value="" style="endArrow=none;html=1;rounded=0;" parent="1" source="XMGHCFaLuTb-ErzqM0Ou-7" edge="1">
          <mxGeometry width="50" height="50" relative="1" as="geometry">
            <mxPoint x="610" y="830" as="sourcePoint" />
            <mxPoint x="610" y="800" as="targetPoint" />
          </mxGeometry>
        </mxCell>
        <mxCell id="WUSuxIz9srzla0MGMRCR-4" value="" style="endArrow=none;html=1;rounded=0;" parent="1" edge="1">
          <mxGeometry width="50" height="50" relative="1" as="geometry">
            <mxPoint x="610" y="800" as="sourcePoint" />
            <mxPoint x="606.1109206403617" y="659.9931430530221" as="targetPoint" />
          </mxGeometry>
        </mxCell>
        <mxCell id="WUSuxIz9srzla0MGMRCR-5" value="" style="endArrow=none;html=1;rounded=0;" parent="1" edge="1">
          <mxGeometry width="50" height="50" relative="1" as="geometry">
            <mxPoint x="610" y="800" as="sourcePoint" />
            <mxPoint x="753.9005009977459" y="740.1338970265658" as="targetPoint" />
          </mxGeometry>
        </mxCell>
        <mxCell id="WUSuxIz9srzla0MGMRCR-6" value="" style="endArrow=none;html=1;rounded=0;" parent="1" edge="1">
          <mxGeometry width="50" height="50" relative="1" as="geometry">
            <mxPoint x="610" y="750" as="sourcePoint" />
            <mxPoint x="660" y="780" as="targetPoint" />
          </mxGeometry>
        </mxCell>
        <mxCell id="WUSuxIz9srzla0MGMRCR-8" value="ISA" style="text;html=1;align=center;verticalAlign=middle;whiteSpace=wrap;rounded=0;rotation=30;" parent="1" vertex="1">
          <mxGeometry x="600" y="759.17" width="60" height="30" as="geometry" />
        </mxCell>
        <mxCell id="WUSuxIz9srzla0MGMRCR-12" value="Wheel Diameter" style="ellipse;whiteSpace=wrap;html=1;" parent="1" vertex="1">
          <mxGeometry x="880" y="670" width="110" height="60" as="geometry" />
        </mxCell>
        <mxCell id="WUSuxIz9srzla0MGMRCR-13" value="Tire Width" style="ellipse;whiteSpace=wrap;html=1;" parent="1" vertex="1">
          <mxGeometry x="730" y="590" width="110" height="60" as="geometry" />
        </mxCell>
        <mxCell id="WUSuxIz9srzla0MGMRCR-15" value="" style="endArrow=none;html=1;rounded=0;" parent="1" source="KWmNkmGv4BMrLDbc9gnQ-3" target="WUSuxIz9srzla0MGMRCR-13" edge="1">
          <mxGeometry width="50" height="50" relative="1" as="geometry">
            <mxPoint x="797.2603293069128" y="679.5041876979274" as="sourcePoint" />
            <mxPoint x="930" y="640" as="targetPoint" />
          </mxGeometry>
        </mxCell>
        <mxCell id="WUSuxIz9srzla0MGMRCR-16" value="" style="endArrow=none;html=1;rounded=0;" parent="1" source="KWmNkmGv4BMrLDbc9gnQ-3" target="WUSuxIz9srzla0MGMRCR-12" edge="1">
          <mxGeometry width="50" height="50" relative="1" as="geometry">
            <mxPoint x="863.8835592915802" y="711.4895357445766" as="sourcePoint" />
            <mxPoint x="990" y="680" as="targetPoint" />
          </mxGeometry>
        </mxCell>
        <mxCell id="WUSuxIz9srzla0MGMRCR-18" value="tyre pttern" style="ellipse;whiteSpace=wrap;html=1;" parent="1" vertex="1">
          <mxGeometry x="885" y="780" width="110" height="60" as="geometry" />
        </mxCell>
        <mxCell id="WUSuxIz9srzla0MGMRCR-19" value="" style="endArrow=none;html=1;rounded=0;" parent="1" source="WUSuxIz9srzla0MGMRCR-18" edge="1">
          <mxGeometry width="50" height="50" relative="1" as="geometry">
            <mxPoint x="870" y="850" as="sourcePoint" />
            <mxPoint x="847.4264068711927" y="747.4542712474613" as="targetPoint" />
          </mxGeometry>
        </mxCell>
        <mxCell id="WUSuxIz9srzla0MGMRCR-22" value="Receipt" style="rounded=0;whiteSpace=wrap;html=1;fillColor=#d5e8d4;strokeColor=#82b366;" parent="1" vertex="1">
          <mxGeometry x="420" y="1690" width="100" height="40" as="geometry" />
        </mxCell>
        <mxCell id="WUSuxIz9srzla0MGMRCR-24" value="Size Code" style="ellipse;whiteSpace=wrap;html=1;" parent="1" vertex="1">
          <mxGeometry x="360" y="1140" width="110" height="60" as="geometry" />
        </mxCell>
        <mxCell id="WUSuxIz9srzla0MGMRCR-25" value="&lt;span style=&quot;white-space-collapse: preserve;&quot;&gt;Preferred Completion Date&lt;/span&gt;" style="ellipse;whiteSpace=wrap;html=1;" parent="1" vertex="1">
          <mxGeometry x="110" y="999.79" width="110" height="60" as="geometry" />
        </mxCell>
        <mxCell id="WUSuxIz9srzla0MGMRCR-27" value="&lt;span&gt;&lt;/span&gt;&lt;span&gt;&lt;/span&gt;&lt;span style=&quot;white-space-collapse: preserve;&quot;&gt;tyre brand name&lt;/span&gt;" style="ellipse;whiteSpace=wrap;html=1;" parent="1" vertex="1">
          <mxGeometry x="230" y="1140" width="110" height="60" as="geometry" />
        </mxCell>
        <mxCell id="WUSuxIz9srzla0MGMRCR-28" value="&lt;span&gt;&lt;/span&gt;&lt;span&gt;&lt;/span&gt;&lt;span style=&quot;white-space-collapse: preserve;&quot;&gt;Number of Patches Applied&lt;/span&gt;" style="ellipse;whiteSpace=wrap;html=1;" parent="1" vertex="1">
          <mxGeometry x="435" y="510" width="110" height="60" as="geometry" />
        </mxCell>
        <mxCell id="WUSuxIz9srzla0MGMRCR-29" value="&lt;span&gt;&lt;/span&gt;&lt;span&gt;&lt;/span&gt;&lt;span style=&quot;white-space-collapse: preserve;&quot;&gt;Puncture Size&lt;/span&gt;" style="ellipse;whiteSpace=wrap;html=1;" parent="1" vertex="1">
          <mxGeometry x="390" y="610" width="110" height="60" as="geometry" />
        </mxCell>
        <mxCell id="WUSuxIz9srzla0MGMRCR-33" value="" style="endArrow=none;html=1;rounded=0;" parent="1" target="WUSuxIz9srzla0MGMRCR-29" edge="1">
          <mxGeometry width="50" height="50" relative="1" as="geometry">
            <mxPoint x="545.8163645700715" y="626.5759594922145" as="sourcePoint" />
            <mxPoint x="630" y="510" as="targetPoint" />
          </mxGeometry>
        </mxCell>
        <mxCell id="WUSuxIz9srzla0MGMRCR-34" value="" style="endArrow=none;html=1;rounded=0;" parent="1" source="WUSuxIz9srzla0MGMRCR-28" edge="1">
          <mxGeometry width="50" height="50" relative="1" as="geometry">
            <mxPoint x="520" y="580" as="sourcePoint" />
            <mxPoint x="563.485678205835" y="591.1204717953635" as="targetPoint" />
          </mxGeometry>
        </mxCell>
        <mxCell id="WUSuxIz9srzla0MGMRCR-35" value="" style="endArrow=none;html=1;rounded=0;" parent="1" source="XMGHCFaLuTb-ErzqM0Ou-7" target="WUSuxIz9srzla0MGMRCR-27" edge="1">
          <mxGeometry width="50" height="50" relative="1" as="geometry">
            <mxPoint x="580" y="580" as="sourcePoint" />
            <mxPoint x="630" y="530" as="targetPoint" />
          </mxGeometry>
        </mxCell>
        <mxCell id="WUSuxIz9srzla0MGMRCR-37" value="" style="endArrow=none;html=1;rounded=0;" parent="1" source="XMGHCFaLuTb-ErzqM0Ou-7" target="WUSuxIz9srzla0MGMRCR-25" edge="1">
          <mxGeometry width="50" height="50" relative="1" as="geometry">
            <mxPoint x="146.15295624425335" y="1150.000882953829" as="sourcePoint" />
            <mxPoint x="255" y="1109.79" as="targetPoint" />
          </mxGeometry>
        </mxCell>
        <mxCell id="WUSuxIz9srzla0MGMRCR-38" value="" style="endArrow=none;html=1;rounded=0;" parent="1" source="XMGHCFaLuTb-ErzqM0Ou-7" target="WUSuxIz9srzla0MGMRCR-24" edge="1">
          <mxGeometry width="50" height="50" relative="1" as="geometry">
            <mxPoint x="459.99737112722494" y="985.4267387494573" as="sourcePoint" />
            <mxPoint x="568.65" y="1009.17" as="targetPoint" />
          </mxGeometry>
        </mxCell>
        <mxCell id="WUSuxIz9srzla0MGMRCR-43" value="" style="ellipse;whiteSpace=wrap;html=1;" parent="1" vertex="1">
          <mxGeometry x="585" y="459.17" width="120" height="80" as="geometry" />
        </mxCell>
        <mxCell id="WUSuxIz9srzla0MGMRCR-44" value="Tyre photo URL" style="ellipse;whiteSpace=wrap;html=1;" parent="1" vertex="1">
          <mxGeometry x="590" y="464.17" width="110" height="70" as="geometry" />
        </mxCell>
        <mxCell id="WUSuxIz9srzla0MGMRCR-45" value="" style="endArrow=none;html=1;rounded=0;entryX=0;entryY=1;entryDx=0;entryDy=0;" parent="1" source="KWmNkmGv4BMrLDbc9gnQ-2" target="WUSuxIz9srzla0MGMRCR-43" edge="1">
          <mxGeometry width="50" height="50" relative="1" as="geometry">
            <mxPoint x="604.2727806936709" y="580.0029381519078" as="sourcePoint" />
            <mxPoint x="770" y="500" as="targetPoint" />
          </mxGeometry>
        </mxCell>
        <mxCell id="WUSuxIz9srzla0MGMRCR-50" value="" style="endArrow=none;html=1;rounded=0;exitX=0.5;exitY=1;exitDx=0;exitDy=0;" parent="1" source="mCTyANqZK8J9GMuDv6o_-27" target="WUSuxIz9srzla0MGMRCR-53" edge="1">
          <mxGeometry width="50" height="50" relative="1" as="geometry">
            <mxPoint x="830" y="1580" as="sourcePoint" />
            <mxPoint x="750" y="1610" as="targetPoint" />
          </mxGeometry>
        </mxCell>
        <mxCell id="WUSuxIz9srzla0MGMRCR-61" value="1" style="edgeLabel;html=1;align=center;verticalAlign=middle;resizable=0;points=[];" parent="WUSuxIz9srzla0MGMRCR-50" vertex="1" connectable="0">
          <mxGeometry x="0.6322" relative="1" as="geometry">
            <mxPoint as="offset" />
          </mxGeometry>
        </mxCell>
        <mxCell id="WUSuxIz9srzla0MGMRCR-51" value="" style="endArrow=none;html=1;rounded=0;" parent="1" target="XMGHCFaLuTb-ErzqM0Ou-87" edge="1">
          <mxGeometry width="50" height="50" relative="1" as="geometry">
            <mxPoint x="850" y="1600" as="sourcePoint" />
            <mxPoint x="910" y="1590" as="targetPoint" />
          </mxGeometry>
        </mxCell>
        <mxCell id="WUSuxIz9srzla0MGMRCR-53" value="Employee" style="rounded=0;whiteSpace=wrap;html=1;fillColor=#d5e8d4;strokeColor=#82b366;" parent="1" vertex="1">
          <mxGeometry x="710" y="1430" width="120" height="60" as="geometry" />
        </mxCell>
        <mxCell id="WUSuxIz9srzla0MGMRCR-56" value="" style="endArrow=none;html=1;rounded=0;" parent="1" target="WUSuxIz9srzla0MGMRCR-53" edge="1">
          <mxGeometry width="50" height="50" relative="1" as="geometry">
            <mxPoint x="850" y="1600" as="sourcePoint" />
            <mxPoint x="810" y="1490" as="targetPoint" />
          </mxGeometry>
        </mxCell>
        <mxCell id="WUSuxIz9srzla0MGMRCR-57" value="" style="endArrow=none;html=1;rounded=0;" parent="1" source="WUSuxIz9srzla0MGMRCR-58" edge="1">
          <mxGeometry width="50" height="50" relative="1" as="geometry">
            <mxPoint x="730" y="1710" as="sourcePoint" />
            <mxPoint x="850" y="1600" as="targetPoint" />
          </mxGeometry>
        </mxCell>
        <mxCell id="WUSuxIz9srzla0MGMRCR-58" value="Owner" style="rounded=0;whiteSpace=wrap;html=1;fillColor=#d5e8d4;strokeColor=#82b366;" parent="1" vertex="1">
          <mxGeometry x="650" y="1740" width="120" height="60" as="geometry" />
        </mxCell>
        <mxCell id="WUSuxIz9srzla0MGMRCR-59" value="" style="endArrow=none;html=1;rounded=0;" parent="1" edge="1">
          <mxGeometry width="50" height="50" relative="1" as="geometry">
            <mxPoint x="820" y="1640" as="sourcePoint" />
            <mxPoint x="910" y="1620" as="targetPoint" />
          </mxGeometry>
        </mxCell>
        <mxCell id="WUSuxIz9srzla0MGMRCR-60" value="ISA" style="text;html=1;align=center;verticalAlign=middle;whiteSpace=wrap;rounded=0;" parent="1" vertex="1">
          <mxGeometry x="825" y="1605" width="60" height="30" as="geometry" />
        </mxCell>
        <mxCell id="WUSuxIz9srzla0MGMRCR-63" value="Address_line_1" style="ellipse;whiteSpace=wrap;html=1;" parent="1" vertex="1">
          <mxGeometry x="-690" y="530" width="110" height="50" as="geometry" />
        </mxCell>
        <mxCell id="WUSuxIz9srzla0MGMRCR-64" value="House_no" style="ellipse;whiteSpace=wrap;html=1;" parent="1" vertex="1">
          <mxGeometry x="-680" y="450" width="110" height="50" as="geometry" />
        </mxCell>
        <mxCell id="WUSuxIz9srzla0MGMRCR-65" value="Address_line_2" style="ellipse;whiteSpace=wrap;html=1;" parent="1" vertex="1">
          <mxGeometry x="-690" y="595" width="110" height="50" as="geometry" />
        </mxCell>
        <mxCell id="WUSuxIz9srzla0MGMRCR-66" value="" style="endArrow=none;html=1;rounded=0;" parent="1" source="WUSuxIz9srzla0MGMRCR-65" target="XMGHCFaLuTb-ErzqM0Ou-13" edge="1">
          <mxGeometry width="50" height="50" relative="1" as="geometry">
            <mxPoint x="-570" y="620" as="sourcePoint" />
            <mxPoint x="-520" y="570" as="targetPoint" />
          </mxGeometry>
        </mxCell>
        <mxCell id="WUSuxIz9srzla0MGMRCR-67" value="" style="endArrow=none;html=1;rounded=0;" parent="1" source="WUSuxIz9srzla0MGMRCR-63" target="XMGHCFaLuTb-ErzqM0Ou-13" edge="1">
          <mxGeometry width="50" height="50" relative="1" as="geometry">
            <mxPoint x="-580" y="580" as="sourcePoint" />
            <mxPoint x="-530" y="530" as="targetPoint" />
          </mxGeometry>
        </mxCell>
        <mxCell id="WUSuxIz9srzla0MGMRCR-68" value="" style="endArrow=none;html=1;rounded=0;" parent="1" source="WUSuxIz9srzla0MGMRCR-64" target="XMGHCFaLuTb-ErzqM0Ou-13" edge="1">
          <mxGeometry width="50" height="50" relative="1" as="geometry">
            <mxPoint x="-580" y="540" as="sourcePoint" />
            <mxPoint x="-530" y="490" as="targetPoint" />
          </mxGeometry>
        </mxCell>
        <mxCell id="WUSuxIz9srzla0MGMRCR-69" value="Address_line_1" style="ellipse;whiteSpace=wrap;html=1;" parent="1" vertex="1">
          <mxGeometry x="1340" y="1600" width="110" height="50" as="geometry" />
        </mxCell>
        <mxCell id="WUSuxIz9srzla0MGMRCR-70" value="House_no" style="ellipse;whiteSpace=wrap;html=1;" parent="1" vertex="1">
          <mxGeometry x="1350" y="1520" width="110" height="50" as="geometry" />
        </mxCell>
        <mxCell id="WUSuxIz9srzla0MGMRCR-71" value="Address_line_2" style="ellipse;whiteSpace=wrap;html=1;" parent="1" vertex="1">
          <mxGeometry x="1340" y="1665" width="110" height="50" as="geometry" />
        </mxCell>
        <mxCell id="WUSuxIz9srzla0MGMRCR-72" value="" style="endArrow=none;html=1;rounded=0;" parent="1" source="XMGHCFaLuTb-ErzqM0Ou-90" target="WUSuxIz9srzla0MGMRCR-70" edge="1">
          <mxGeometry width="50" height="50" relative="1" as="geometry">
            <mxPoint x="1230" y="1530" as="sourcePoint" />
            <mxPoint x="1280" y="1480" as="targetPoint" />
          </mxGeometry>
        </mxCell>
        <mxCell id="WUSuxIz9srzla0MGMRCR-73" value="" style="endArrow=none;html=1;rounded=0;" parent="1" source="XMGHCFaLuTb-ErzqM0Ou-90" target="WUSuxIz9srzla0MGMRCR-71" edge="1">
          <mxGeometry width="50" height="50" relative="1" as="geometry">
            <mxPoint x="1290" y="1560" as="sourcePoint" />
            <mxPoint x="1340" y="1510" as="targetPoint" />
          </mxGeometry>
        </mxCell>
        <mxCell id="WUSuxIz9srzla0MGMRCR-74" value="" style="endArrow=none;html=1;rounded=0;" parent="1" source="XMGHCFaLuTb-ErzqM0Ou-90" target="WUSuxIz9srzla0MGMRCR-69" edge="1">
          <mxGeometry width="50" height="50" relative="1" as="geometry">
            <mxPoint x="1270" y="1560" as="sourcePoint" />
            <mxPoint x="1320" y="1510" as="targetPoint" />
          </mxGeometry>
        </mxCell>
        <mxCell id="WUSuxIz9srzla0MGMRCR-75" value="&lt;span style=&quot;white-space-collapse: preserve; text-align: left;&quot;&gt;Tyre Structure&lt;/span&gt;" style="ellipse;whiteSpace=wrap;html=1;" parent="1" vertex="1">
          <mxGeometry x="150" y="930" width="110" height="60" as="geometry" />
        </mxCell>
        <mxCell id="WUSuxIz9srzla0MGMRCR-76" value="" style="endArrow=none;html=1;rounded=0;" parent="1" source="XMGHCFaLuTb-ErzqM0Ou-7" target="WUSuxIz9srzla0MGMRCR-75" edge="1">
          <mxGeometry width="50" height="50" relative="1" as="geometry">
            <mxPoint x="594" y="1070" as="sourcePoint" />
            <mxPoint x="650" y="1000" as="targetPoint" />
          </mxGeometry>
        </mxCell>
        <mxCell id="WUSuxIz9srzla0MGMRCR-77" value="Title" style="ellipse;whiteSpace=wrap;html=1;" parent="1" vertex="1">
          <mxGeometry x="1095" y="1330" width="90" height="50" as="geometry" />
        </mxCell>
        <mxCell id="WUSuxIz9srzla0MGMRCR-78" value="Last name" style="ellipse;whiteSpace=wrap;html=1;" parent="1" vertex="1">
          <mxGeometry x="1150" y="1390" width="95" height="50" as="geometry" />
        </mxCell>
        <mxCell id="WUSuxIz9srzla0MGMRCR-79" value="First name" style="ellipse;whiteSpace=wrap;html=1;" parent="1" vertex="1">
          <mxGeometry x="985" y="1300" width="100" height="50" as="geometry" />
        </mxCell>
        <mxCell id="WUSuxIz9srzla0MGMRCR-80" value="" style="endArrow=none;html=1;rounded=0;" parent="1" source="XMGHCFaLuTb-ErzqM0Ou-93" target="WUSuxIz9srzla0MGMRCR-79" edge="1">
          <mxGeometry width="50" height="50" relative="1" as="geometry">
            <mxPoint x="1080" y="1330" as="sourcePoint" />
            <mxPoint x="1130" y="1280" as="targetPoint" />
          </mxGeometry>
        </mxCell>
        <mxCell id="WUSuxIz9srzla0MGMRCR-81" value="" style="endArrow=none;html=1;rounded=0;" parent="1" source="XMGHCFaLuTb-ErzqM0Ou-93" target="WUSuxIz9srzla0MGMRCR-77" edge="1">
          <mxGeometry width="50" height="50" relative="1" as="geometry">
            <mxPoint x="1220" y="1320" as="sourcePoint" />
            <mxPoint x="1270" y="1270" as="targetPoint" />
          </mxGeometry>
        </mxCell>
        <mxCell id="WUSuxIz9srzla0MGMRCR-82" value="" style="endArrow=none;html=1;rounded=0;" parent="1" source="XMGHCFaLuTb-ErzqM0Ou-93" target="WUSuxIz9srzla0MGMRCR-78" edge="1">
          <mxGeometry width="50" height="50" relative="1" as="geometry">
            <mxPoint x="1200" y="1390" as="sourcePoint" />
            <mxPoint x="1250" y="1340" as="targetPoint" />
          </mxGeometry>
        </mxCell>
        <mxCell id="WUSuxIz9srzla0MGMRCR-85" value="Date" style="ellipse;whiteSpace=wrap;html=1;" parent="1" vertex="1">
          <mxGeometry x="715" y="995" width="90" height="60" as="geometry" />
        </mxCell>
        <mxCell id="WUSuxIz9srzla0MGMRCR-86" value="Used units" style="ellipse;whiteSpace=wrap;html=1;" parent="1" vertex="1">
          <mxGeometry x="630" y="950" width="85" height="60" as="geometry" />
        </mxCell>
        <mxCell id="WUSuxIz9srzla0MGMRCR-87" value="" style="endArrow=none;html=1;rounded=0;entryX=0.5;entryY=0;entryDx=0;entryDy=0;" parent="1" source="WUSuxIz9srzla0MGMRCR-86" target="mCTyANqZK8J9GMuDv6o_-30" edge="1">
          <mxGeometry width="50" height="50" relative="1" as="geometry">
            <mxPoint x="735" y="795" as="sourcePoint" />
            <mxPoint x="775" y="955" as="targetPoint" />
          </mxGeometry>
        </mxCell>
        <mxCell id="WUSuxIz9srzla0MGMRCR-88" value="" style="endArrow=none;html=1;rounded=0;" parent="1" source="WUSuxIz9srzla0MGMRCR-85" edge="1">
          <mxGeometry width="50" height="50" relative="1" as="geometry">
            <mxPoint x="842.13740317466" y="958.3944860214283" as="sourcePoint" />
            <mxPoint x="590" y="1030" as="targetPoint" />
          </mxGeometry>
        </mxCell>
        <mxCell id="Zb_vISIjfATzehHnLD8i-1" value="Image Url" style="ellipse;whiteSpace=wrap;html=1;" parent="1" vertex="1">
          <mxGeometry x="985" y="1860" width="100" height="60" as="geometry" />
        </mxCell>
        <mxCell id="SaGzNA4MYIlWDNow6fjE-1" value="NIC" style="ellipse;whiteSpace=wrap;html=1;" parent="1" vertex="1">
          <mxGeometry x="1220" y="1760" width="110" height="60" as="geometry" />
        </mxCell>
        <mxCell id="SaGzNA4MYIlWDNow6fjE-2" value="" style="endArrow=none;html=1;rounded=0;" parent="1" source="XMGHCFaLuTb-ErzqM0Ou-87" target="SaGzNA4MYIlWDNow6fjE-1" edge="1">
          <mxGeometry width="50" height="50" relative="1" as="geometry">
            <mxPoint x="1120" y="1900" as="sourcePoint" />
            <mxPoint x="1170" y="1850" as="targetPoint" />
          </mxGeometry>
        </mxCell>
        <mxCell id="SaGzNA4MYIlWDNow6fjE-8" value="NIC" style="ellipse;whiteSpace=wrap;html=1;" parent="1" vertex="1">
          <mxGeometry x="-500" y="390" width="110" height="60" as="geometry" />
        </mxCell>
        <mxCell id="SaGzNA4MYIlWDNow6fjE-9" value="" style="endArrow=none;html=1;rounded=0;" parent="1" source="SaGzNA4MYIlWDNow6fjE-8" target="XMGHCFaLuTb-ErzqM0Ou-1" edge="1">
          <mxGeometry width="50" height="50" relative="1" as="geometry">
            <mxPoint x="-340" y="510" as="sourcePoint" />
            <mxPoint x="-290" y="460" as="targetPoint" />
          </mxGeometry>
        </mxCell>
        <mxCell id="SaGzNA4MYIlWDNow6fjE-16" value="" style="endArrow=none;html=1;rounded=0;" parent="1" source="Zb_vISIjfATzehHnLD8i-1" target="XMGHCFaLuTb-ErzqM0Ou-87" edge="1">
          <mxGeometry width="50" height="50" relative="1" as="geometry">
            <mxPoint x="1010" y="1790" as="sourcePoint" />
            <mxPoint x="1060" y="1740" as="targetPoint" />
          </mxGeometry>
        </mxCell>
        <mxCell id="SaGzNA4MYIlWDNow6fjE-24" value="Payment Time" style="ellipse;whiteSpace=wrap;html=1;" parent="1" vertex="1">
          <mxGeometry x="-180" y="1740" width="120" height="80" as="geometry" />
        </mxCell>
        <mxCell id="SaGzNA4MYIlWDNow6fjE-25" value="" style="endArrow=none;html=1;rounded=0;" parent="1" source="SaGzNA4MYIlWDNow6fjE-24" target="QH4C9bZdyQ2NckHa1oD1-48" edge="1">
          <mxGeometry width="50" height="50" relative="1" as="geometry">
            <mxPoint x="-140" y="1730" as="sourcePoint" />
            <mxPoint x="-90" y="1680" as="targetPoint" />
          </mxGeometry>
        </mxCell>
        <mxCell id="BeR3bM12xx7X0e_XR_oL-1" value="&lt;br&gt;Invoice_time&lt;div&gt;&lt;br/&gt;&lt;/div&gt;" style="ellipse;whiteSpace=wrap;html=1;" parent="1" vertex="1">
          <mxGeometry x="530" y="1530" width="110" height="60" as="geometry" />
        </mxCell>
        <mxCell id="KWmNkmGv4BMrLDbc9gnQ-1" value="" style="endArrow=none;html=1;rounded=0;" parent="1" source="XMGHCFaLuTb-ErzqM0Ou-50" target="BeR3bM12xx7X0e_XR_oL-1" edge="1">
          <mxGeometry width="50" height="50" relative="1" as="geometry">
            <mxPoint x="490" y="1630" as="sourcePoint" />
            <mxPoint x="540" y="1520" as="targetPoint" />
          </mxGeometry>
        </mxCell>
        <mxCell id="KWmNkmGv4BMrLDbc9gnQ-2" value="repair" style="rounded=0;whiteSpace=wrap;html=1;fillColor=#d5e8d4;strokeColor=#82b366;" parent="1" vertex="1">
          <mxGeometry x="545" y="595" width="120" height="60" as="geometry" />
        </mxCell>
        <mxCell id="KWmNkmGv4BMrLDbc9gnQ-3" value="retreading" style="rounded=0;whiteSpace=wrap;html=1;fillColor=#d5e8d4;strokeColor=#82b366;" parent="1" vertex="1">
          <mxGeometry x="740" y="700" width="120" height="60" as="geometry" />
        </mxCell>
        <mxCell id="KWmNkmGv4BMrLDbc9gnQ-5" value="M" style="text;html=1;align=center;verticalAlign=middle;resizable=0;points=[];autosize=1;strokeColor=none;fillColor=none;" parent="1" vertex="1">
          <mxGeometry x="-295" y="890" width="30" height="30" as="geometry" />
        </mxCell>
        <mxCell id="KWmNkmGv4BMrLDbc9gnQ-6" value="Emp_ID" style="ellipse;whiteSpace=wrap;html=1;fontStyle=4" parent="1" vertex="1">
          <mxGeometry x="930" y="1500" width="100" height="60" as="geometry" />
        </mxCell>
        <mxCell id="KWmNkmGv4BMrLDbc9gnQ-8" value="" style="endArrow=none;html=1;rounded=0;" parent="1" source="WUSuxIz9srzla0MGMRCR-53" target="KWmNkmGv4BMrLDbc9gnQ-6" edge="1">
          <mxGeometry width="50" height="50" relative="1" as="geometry">
            <mxPoint x="770" y="1440" as="sourcePoint" />
            <mxPoint x="820" y="1390" as="targetPoint" />
          </mxGeometry>
        </mxCell>
        <mxCell id="_7z7WYXmwQ3iHhL43uiS-1" value="Username" style="ellipse;whiteSpace=wrap;html=1;" vertex="1" parent="1">
          <mxGeometry x="460" y="1360" width="120" height="60" as="geometry" />
        </mxCell>
        <mxCell id="_7z7WYXmwQ3iHhL43uiS-2" value="Password" style="ellipse;whiteSpace=wrap;html=1;" vertex="1" parent="1">
          <mxGeometry x="525" y="1430" width="120" height="60" as="geometry" />
        </mxCell>
        <mxCell id="_7z7WYXmwQ3iHhL43uiS-3" value="" style="endArrow=none;html=1;rounded=0;" edge="1" parent="1" source="_7z7WYXmwQ3iHhL43uiS-1" target="WUSuxIz9srzla0MGMRCR-53">
          <mxGeometry width="50" height="50" relative="1" as="geometry">
            <mxPoint x="430" y="1380" as="sourcePoint" />
            <mxPoint x="480" y="1330" as="targetPoint" />
          </mxGeometry>
        </mxCell>
        <mxCell id="_7z7WYXmwQ3iHhL43uiS-4" value="" style="endArrow=none;html=1;rounded=0;" edge="1" parent="1" source="_7z7WYXmwQ3iHhL43uiS-2" target="WUSuxIz9srzla0MGMRCR-53">
          <mxGeometry width="50" height="50" relative="1" as="geometry">
            <mxPoint x="670" y="1560" as="sourcePoint" />
            <mxPoint x="720" y="1510" as="targetPoint" />
          </mxGeometry>
        </mxCell>
        <mxCell id="_7z7WYXmwQ3iHhL43uiS-5" value="Username" style="ellipse;whiteSpace=wrap;html=1;" vertex="1" parent="1">
          <mxGeometry x="-20" y="380" width="120" height="60" as="geometry" />
        </mxCell>
        <mxCell id="_7z7WYXmwQ3iHhL43uiS-6" value="Password" style="ellipse;whiteSpace=wrap;html=1;" vertex="1" parent="1">
          <mxGeometry x="45" y="450" width="120" height="60" as="geometry" />
        </mxCell>
        <mxCell id="_7z7WYXmwQ3iHhL43uiS-7" value="" style="endArrow=none;html=1;rounded=0;" edge="1" parent="1" source="XMGHCFaLuTb-ErzqM0Ou-1" target="_7z7WYXmwQ3iHhL43uiS-5">
          <mxGeometry width="50" height="50" relative="1" as="geometry">
            <mxPoint x="-70" y="540" as="sourcePoint" />
            <mxPoint x="-20" y="490" as="targetPoint" />
          </mxGeometry>
        </mxCell>
        <mxCell id="_7z7WYXmwQ3iHhL43uiS-8" value="" style="endArrow=none;html=1;rounded=0;" edge="1" parent="1" source="XMGHCFaLuTb-ErzqM0Ou-1" target="_7z7WYXmwQ3iHhL43uiS-6">
          <mxGeometry width="50" height="50" relative="1" as="geometry">
            <mxPoint x="-20" y="570" as="sourcePoint" />
            <mxPoint x="30" y="520" as="targetPoint" />
          </mxGeometry>
        </mxCell>
        <mxCell id="_7z7WYXmwQ3iHhL43uiS-9" value="Owner_Key" style="ellipse;whiteSpace=wrap;html=1;" vertex="1" parent="1">
          <mxGeometry x="550" y="1835" width="120" height="60" as="geometry" />
        </mxCell>
        <mxCell id="_7z7WYXmwQ3iHhL43uiS-10" value="" style="endArrow=none;html=1;rounded=0;" edge="1" parent="1" source="_7z7WYXmwQ3iHhL43uiS-9" target="WUSuxIz9srzla0MGMRCR-58">
          <mxGeometry width="50" height="50" relative="1" as="geometry">
            <mxPoint x="560" y="1780" as="sourcePoint" />
            <mxPoint x="610" y="1730" as="targetPoint" />
          </mxGeometry>
        </mxCell>
      </root>
    </mxGraphModel>
  </diagram>
</mxfile>
